<?xml version="1.0" standalone="no"?>
<!DOCTYPE svg PUBLIC "-//W3C//DTD SVG 20010904//EN"
 "http://www.w3.org/TR/2001/REC-SVG-20010904/DTD/svg10.dtd">
<svg version="1.0" xmlns="http://www.w3.org/2000/svg"
 width="634.000000pt" height="634.000000pt" viewBox="0 0 634.000000 634.000000"
 preserveAspectRatio="xMidYMid meet">
<metadata>
Created by potrace 1.11, written by Peter Selinger 2001-2013
</metadata>
<g transform="translate(0.000000,634.000000) scale(0.100000,-0.100000)"
fill="#000000" stroke="none">
<path d="M4322 4990 c0 -14 2 -19 5 -12 2 6 2 18 0 25 -3 6 -5 1 -5 -13z"/>
<path d="M4345 4987 c0 -12 -2 -38 -6 -57 l-6 -35 -2 33 c-2 47 -17 39 -20
-10 -3 -62 -11 -60 -11 2 0 29 -2 51 -4 49 -11 -11 -28 -286 -41 -659 -5 -129
-5 -937 -1 -1030 2 -41 7 -151 11 -245 4 -93 8 -186 11 -205 2 -19 4 -64 5
-100 2 -69 4 -69 18 1 l9 44 2 -65 c2 -61 3 -63 10 -25 4 22 6 43 3 48 -2 4 0
7 6 7 5 0 9 -18 9 -40 0 -23 2 -44 6 -47 3 -4 6 9 7 28 0 35 3 82 13 216 21
299 30 1403 13 1708 -10 179 -15 272 -18 343 -1 29 -5 55 -9 57 -4 2 -6 -6 -5
-18z"/>
<path d="M4631 5000 c-1 -8 -4 -23 -6 -32 -2 -10 -6 -64 -10 -120 -3 -57 -8
-134 -10 -173 -10 -148 -19 -593 -19 -885 0 -302 11 -802 18 -850 3 -14 7 -81
11 -150 6 -117 13 -166 16 -107 1 15 3 32 4 37 1 6 4 18 5 28 1 10 5 5 10 -13
7 -29 8 -29 10 10 1 22 3 47 5 55 3 20 13 187 22 380 15 332 7 1456 -12 1605
-2 17 -5 65 -7 108 -1 42 -6 77 -11 77 -4 0 -7 -6 -6 -12 1 -7 0 -26 -2 -43
-1 -17 -5 -2 -9 35 -4 36 -8 58 -9 50z m16 -2222 c-3 -7 -5 -2 -5 12 0 14 2
19 5 13 2 -7 2 -19 0 -25z"/>
<path d="M1358 4996 c-1 -2 -46 -6 -98 -9 -52 -3 -106 -9 -120 -12 -14 -3 -41
-8 -60 -11 -62 -10 -240 -73 -324 -115 -254 -128 -467 -357 -568 -610 -97
-241 -106 -503 -26 -749 69 -216 232 -433 422 -562 139 -96 340 -175 489 -194
23 -3 53 -7 67 -10 37 -6 207 -5 265 1 152 18 311 67 459 142 196 98 288 172
576 464 l246 248 25 -22 c13 -12 71 -62 129 -112 58 -49 119 -102 135 -116 67
-58 183 -157 235 -199 30 -25 57 -47 60 -50 19 -20 184 -138 248 -179 118 -74
274 -148 352 -167 8 -2 40 -10 70 -18 30 -9 59 -16 63 -16 5 0 6 30 2 68 -3
37 -8 90 -10 117 -9 101 -14 162 -21 256 -6 92 -8 98 -33 109 -52 24 -219 138
-326 225 -91 73 -230 193 -374 322 -14 12 -71 62 -127 110 -57 48 -102 91
-101 95 1 4 106 113 232 244 289 298 401 393 544 464 l60 30 -6 52 c-3 29 -7
55 -9 57 -7 7 -152 -67 -238 -123 -153 -99 -214 -153 -513 -458 l-173 -176
-62 55 c-35 30 -74 65 -88 77 -90 80 -390 333 -465 392 -293 232 -562 353
-820 370 -49 3 -95 7 -102 9 -6 2 -13 2 -15 1z m74 -486 c152 -37 337 -142
548 -310 58 -46 110 -89 116 -94 6 -6 41 -38 79 -71 38 -33 78 -69 91 -80 12
-11 33 -29 45 -41 13 -11 81 -70 151 -132 l128 -111 -133 -137 c-430 -445
-532 -530 -728 -609 -116 -46 -228 -64 -369 -60 -69 2 -138 7 -155 10 -189 38
-389 139 -509 259 -181 180 -270 406 -253 645 37 501 508 849 989 731z"/>
<path d="M4090 4896 c0 -36 -4 -55 -10 -51 -6 4 -9 9 -6 13 2 4 0 16 -5 27 -5
14 -8 6 -9 -30 -1 -27 -3 -63 -5 -80 -33 -335 -39 -1365 -10 -1795 14 -208 17
-245 21 -249 2 -2 4 15 4 39 0 56 11 45 17 -17 6 -64 13 -67 14 -7 1 27 3 58
4 69 26 209 39 1252 21 1675 -14 323 -22 450 -32 459 -2 2 -4 -21 -4 -53z"/>
<path d="M4959 4874 c-1 -61 -4 -114 -13 -224 -26 -321 -27 -1304 -1 -1670 3
-36 7 -101 10 -145 7 -88 14 -111 16 -47 2 72 9 87 19 42 7 -31 8 -29 9 23 1
54 14 77 24 40 3 -10 6 7 7 37 1 30 4 64 5 75 32 247 38 1125 11 1585 -11 184
-26 304 -26 205 0 -57 -8 -38 -16 35 -8 83 -14 89 -14 15 0 -75 -8 -67 -15 15
-7 83 -15 89 -16 14z"/>
<path d="M5300 4720 c-2 -19 -4 -48 -5 -65 -1 -16 -5 -57 -8 -90 -29 -259 -29
-1186 -1 -1460 10 -102 14 -128 19 -133 5 -5 10 81 6 102 -1 5 4 6 12 3 10 -4
14 6 16 38 1 24 4 53 6 64 2 11 7 51 10 88 4 37 8 79 10 93 4 27 15 152 21
235 5 77 5 541 0 625 -8 129 -18 213 -31 273 -16 71 -15 60 -16 105 -1 24 -3
30 -7 17 -4 -12 -11 12 -18 60 -8 55 -12 69 -14 45z"/>
<path d="M5621 4254 c-6 -22 -14 -68 -18 -104 -10 -83 -10 -445 -1 -531 9 -72
26 -170 32 -176 6 -6 25 107 31 177 3 36 8 88 11 115 9 68 9 157 1 235 -4 36
-10 90 -13 120 -3 30 -7 66 -10 80 -2 14 -7 45 -10 70 -8 58 -11 60 -23 14z"/>
<path d="M1406 2316 c-8 -6 -105 -159 -216 -341 -110 -181 -212 -340 -226
-352 -21 -19 -35 -23 -90 -21 -58 2 -64 4 -64 23 0 21 89 464 111 549 10 42
13 45 57 53 42 7 47 11 53 41 4 21 3 32 -5 33 -15 1 -187 1 -207 0 -9 -1 -64
-78 -129 -183 -169 -271 -181 -290 -187 -285 -4 5 -26 100 -36 163 -4 23 -32
156 -41 199 -2 6 -6 31 -11 58 -4 26 -12 47 -19 48 -38 3 -207 1 -211 -3 -3
-2 -8 -19 -11 -36 -6 -29 -4 -32 19 -32 66 0 68 -9 33 -172 -14 -62 -27 -124
-30 -138 -13 -69 -46 -222 -56 -262 -11 -45 -14 -46 -58 -55 -42 -7 -47 -11
-53 -41 l-6 -32 143 0 c109 0 144 3 144 13 0 6 3 22 6 35 6 19 3 22 -24 22
-30 0 -67 25 -58 38 2 4 21 88 41 187 33 160 45 208 45 179 0 -8 63 -317 75
-371 4 -18 12 -23 39 -23 33 0 36 4 171 223 76 122 141 226 146 231 4 5 2 -18
-6 -50 -13 -60 -53 -249 -61 -294 -13 -68 -26 -101 -47 -112 -12 -6 -23 -11
-24 -10 -2 1 -14 2 -27 2 -20 0 -25 -6 -28 -35 l-4 -35 283 0 282 0 9 33 c5
17 8 33 7 35 -1 1 -18 3 -38 4 l-37 1 25 41 c13 23 32 56 42 74 l17 33 140 -3
140 -3 11 -62 c6 -34 9 -66 6 -71 -3 -5 -21 -9 -39 -8 -38 1 -37 2 -47 -41
l-7 -33 315 0 315 0 6 32 c3 17 4 33 2 35 -2 2 -20 4 -40 5 -32 1 -36 4 -36
29 0 15 7 62 16 105 22 108 22 107 23 122 1 6 12 12 26 12 23 0 32 -13 82
-117 30 -65 66 -142 79 -171 l23 -52 258 2 257 3 7 33 c6 30 5 32 -25 34 -17
0 -37 1 -44 1 -15 -1 -13 10 18 162 11 55 23 111 25 125 19 104 67 316 73 322
4 4 25 11 47 15 31 7 40 14 47 38 4 16 5 31 3 33 -6 6 -314 6 -320 0 -3 -2 -8
-19 -11 -36 -6 -29 -4 -32 20 -33 14 -1 32 -2 39 -3 20 -2 16 -47 -23 -231
-11 -49 -21 -101 -24 -115 -27 -147 -57 -270 -64 -271 -4 0 -35 -2 -68 -5 -55
-5 -64 -3 -83 18 -21 21 -146 268 -139 272 2 1 20 11 42 21 122 63 181 216
120 311 -42 65 -83 75 -314 77 l-192 2 -9 -23 c-16 -42 -11 -52 26 -52 57 0
57 -6 -1 -275 -14 -60 -26 -121 -29 -134 -2 -14 -10 -50 -16 -80 -16 -78 -17
-85 -18 -96 -3 -25 -21 -36 -72 -41 -36 -3 -60 -1 -72 8 -16 12 -39 102 -62
238 -3 19 -12 67 -20 107 -8 39 -18 89 -21 110 -3 21 -9 56 -14 78 -5 22 -12
56 -15 75 -4 19 -8 42 -10 50 -2 8 -4 22 -4 31 -1 20 -46 30 -65 15z m762
-131 c45 -53 11 -160 -64 -202 -36 -21 -120 -41 -129 -31 -4 4 40 229 50 257
4 10 19 12 63 8 45 -4 61 -11 80 -32z m-785 -218 c27 -148 36 -135 -96 -136
-64 0 -87 3 -85 12 4 15 152 257 155 253 2 -1 13 -59 26 -129z"/>
<path d="M3103 2301 c-64 -24 -66 -25 -132 -75 -68 -51 -143 -158 -173 -244
-17 -52 -23 -89 -23 -167 0 -90 3 -106 28 -157 51 -104 140 -152 274 -147 146
5 271 81 364 220 109 164 112 407 5 514 -47 47 -105 68 -201 72 -71 3 -101 0
-142 -16z m171 -76 c83 -35 116 -144 91 -302 -14 -85 -32 -127 -90 -209 -146
-205 -362 -141 -350 104 7 137 59 267 139 347 71 71 138 90 210 60z"/>
<path d="M3953 2302 c-15 -2 -24 -13 -28 -33 -8 -37 -8 -37 38 -41 45 -3 45
-5 16 -149 -11 -57 -23 -113 -25 -124 -2 -11 -6 -29 -8 -40 -3 -11 -17 -79
-32 -151 -14 -73 -29 -137 -33 -143 -4 -6 -25 -13 -46 -17 -48 -7 -43 -3 -51
-42 l-6 -32 170 0 170 0 7 31 c4 17 5 32 2 35 -2 2 -24 6 -48 8 -24 1 -43 7
-43 12 1 5 4 27 8 49 8 60 25 146 31 154 2 5 38 10 78 13 126 8 238 75 290
172 32 61 31 188 -2 232 -25 34 -58 53 -106 61 -34 6 -348 10 -382 5z m345
-118 c21 -24 23 -33 17 -82 -7 -63 -23 -97 -57 -128 -42 -39 -74 -54 -121 -59
-39 -4 -45 -2 -42 13 42 205 58 278 62 285 3 5 31 6 62 3 44 -4 61 -11 79 -32z"/>
<path d="M4520 2300 c-4 -3 -11 -20 -15 -37 -7 -35 -4 -37 43 -33 12 1 25 -6
28 -15 5 -13 -13 -120 -51 -305 -2 -8 -13 -62 -25 -120 -31 -151 -39 -180 -53
-181 -68 -4 -87 -17 -87 -56 l0 -23 684 0 684 0 4 30 c5 33 -6 46 -34 42 -31
-5 -24 5 82 122 92 103 99 110 103 106 6 -8 77 -194 79 -209 2 -9 -9 -15 -32
-18 -42 -6 -38 -2 -46 -41 l-6 -32 156 0 c86 0 156 3 157 8 0 4 3 19 5 35 4
23 1 27 -18 27 -13 0 -29 4 -36 8 -6 5 -43 83 -81 175 l-69 167 22 23 c11 13
57 64 101 113 112 124 108 120 132 133 12 6 30 11 41 11 29 0 48 69 20 71 -37
3 -210 0 -214 -3 -2 -3 -7 -19 -10 -36 -6 -28 -4 -32 15 -32 11 0 21 -4 21 -8
0 -10 -56 -78 -120 -145 l-46 -49 -38 91 c-21 50 -35 95 -31 101 3 5 19 10 34
10 24 0 30 5 35 32 3 17 4 33 1 36 -3 3 -72 6 -153 6 l-149 1 -10 -37 -10 -38
32 0 c18 0 39 -8 48 -17 8 -10 40 -81 71 -157 54 -136 55 -140 38 -160 -173
-198 -256 -282 -282 -289 -15 -4 -16 1 -7 41 11 52 5 58 -49 57 -35 -1 -38 -4
-50 -46 l-13 -45 -108 1 -108 0 1 35 c0 19 3 49 6 65 4 17 11 55 17 85 20 97
14 91 94 88 l72 -3 -2 -28 c-2 -27 0 -28 40 -25 l42 3 21 97 20 96 -39 4 c-36
3 -41 1 -53 -27 -12 -31 -14 -31 -83 -32 -39 -1 -71 2 -71 7 0 4 5 32 11 61 6
30 12 65 15 79 3 14 9 42 15 63 l10 38 92 -2 c51 -1 95 -6 98 -11 4 -6 3 -25
-1 -44 l-8 -34 49 0 c42 0 49 3 54 23 39 171 68 152 -227 150 -139 -1 -261 -2
-270 -2 -10 -1 -19 -13 -23 -32 -8 -37 -6 -40 34 -41 28 -1 59 -27 46 -39 -2
-3 -6 -16 -8 -29 -3 -14 -19 -93 -36 -175 -17 -83 -33 -161 -36 -175 -15 -81
-38 -179 -45 -190 -4 -6 -26 -13 -50 -16 -32 -3 -41 -1 -37 10 3 7 8 33 12 58
l7 44 -48 -5 c-46 -6 -49 -8 -57 -44 -5 -20 -16 -41 -26 -46 -16 -8 -210 -13
-223 -5 -3 2 2 41 12 86 10 46 20 97 23 113 12 67 77 373 83 388 3 10 23 19
49 22 38 6 44 11 49 38 3 16 4 32 1 35 -6 7 -305 8 -315 2z"/>
</g>
</svg>
